# xmcd
# Track frame offsets:
# 150
# 15997
# 31352
# 48395
# 62985
# 77270
# 95682
# 115117
# 133997
# 150577
# 168430
# 185165
#
# Disc length: 2674 seconds
# Revision: 0
# Processed by: cddbd v1.5.1PL2 Copyright (c) Steve Scherf et al.
# Submitted via: VisiTrax 2.10.0.248 - For more info visit www.synapsa.com
#
DISCID=980a700c
DTITLE=SheDaisy - Fortuneteller's Melody
DYEAR=1900
DGENRE=
TTITLE0=23 Days
TTITLE1=Whatever It Takes
TTITLE2=Bring It On Back
TTITLE3=I'm Taking The Wheel
TTITLE4=God Bless The American Housewife
TTITLE5=Kickin' In
TTITLE6=Healing Side
TTITLE7=What Do I Do Now
TTITLE8=In Terms Of Love
TTITLE9=Burn Down The House
TTITLE10=Out Of My Mind
TTITLE11=She Gets What I Deserve
EXTD=
EXTT0=
EXTT1=
EXTT2=
EXTT3=
EXTT4=
EXTT5=
EXTT6=
EXTT7=
EXTT8=
EXTT9=
EXTT10=
EXTT11=
PLAYORDER=
